<?xml version="1.0" encoding="utf-8"?>
<!-- Generator: Adobe Illustrator 19.2.1, SVG Export Plug-In . SVG Version: 6.00 Build 0)  -->
<svg version="1.1" id="Layer_1" xmlns="http://www.w3.org/2000/svg" xmlns:xlink="http://www.w3.org/1999/xlink" x="0px" y="0px"
	 width="203.766px" height="79.716px" viewBox="0 0 203.766 79.716" enable-background="new 0 0 203.766 79.716"
	 xml:space="preserve">
<g>
	<g>
		<path fill-rule="evenodd" clip-rule="evenodd" fill="#ED1C24" d="M97.881,65.271c0-2.271-1.772-3.668-4.244-3.668
			c-4.416,0-7.113,3.863-7.113,7.585c0,3.196,1.797,5.164,5.27,5.164c1.369,0,3.143-0.249,4.565-0.973l-0.25-2.596
			c-0.972,0.475-2.099,0.776-3.42,0.776c-1.049,0-1.873-0.327-2.346-0.947c-0.25-0.35-0.374-0.901-0.398-1.252
			C94.857,69.485,97.881,68.365,97.881,65.271z M93.186,64.222c0.824,0,1.322,0.421,1.322,1.02c0,1.15-1.394,1.523-4.215,1.5
			C90.542,65.621,91.514,64.222,93.186,64.222z"/>
		<path fill-rule="evenodd" clip-rule="evenodd" fill="#ED1C24" d="M39.858,57.257l-3.194,16.82h0.001l-0.002,0.01
			c0.205,0.002,1.062,0.004,1.236,0.005h0.038h0.179h0.033c0.491-0.002,0.846-0.01,1.099-0.01c0.598,0.001,1.03-0.403,1.169-0.887
			l0.01-0.008L42.9,60.326h5.743l-2.014,10.567l0,0l-0.161,0.844l-0.444,2.34l0,0v0.001c0.204,0.004,1.061,0.005,1.236,0.005h0.037
			h0.179h0.033c0.316,0,0.57-0.004,0.782-0.007c0.119-0.001,0.227-0.003,0.317-0.003c0.601,0.002,1.036-0.405,1.171-0.893
			c0.009-0.033,0.027-0.125,0.052-0.252l0,0l0.378-1.991c0.002-0.006,0.003-0.015,0.006-0.021h-0.001l2.598-13.659H39.858z"/>
		<path fill-rule="evenodd" clip-rule="evenodd" fill="#ED1C24" d="M60.272,61.603c-4.416,0-7.111,3.863-7.111,7.585
			c0,3.196,1.795,5.164,5.261,5.164c1.376,0,3.148-0.249,4.571-0.973l-0.249-2.596c-0.971,0.475-2.097,0.776-3.419,0.776
			c-1.049,0-1.872-0.327-2.347-0.947c-0.251-0.35-0.374-0.901-0.397-1.252c4.912,0.125,7.935-0.995,7.935-4.09
			C64.515,63,62.744,61.603,60.272,61.603z M56.931,66.741c0.249-1.12,1.22-2.52,2.891-2.52c0.825,0,1.321,0.421,1.321,1.02
			C61.143,66.392,59.745,66.765,56.931,66.741z"/>
		<path fill-rule="evenodd" clip-rule="evenodd" fill="#ED1C24" d="M81.634,61.577c-1.6,0-3.118,0.748-4.22,2.317
			c-0.1-1.072-0.947-2.317-2.891-2.317c-1.572,0-3.071,0.694-4.193,2.271h-0.053l0.226-1.974l-0.033,0.017l0.003-0.012
			c-0.937-0.014-1.539,0.006-1.917,0.005c-0.6-0.001-1.034,0.405-1.171,0.894c-0.019,0.069-0.074,0.372-0.139,0.74l0,0
			c0,0.001-0.001,0.003-0.001,0.004c-0.098,0.546-0.22,1.234-0.293,1.52l0.013-0.003c-0.04,0.199-0.089,0.452-0.151,0.807
			l-0.953,5.144l0,0l-0.292,1.577l-0.28,1.51l0.525-0.002c0.237,0.001,0.479,0.001,0.57,0.001h0.037h0.18h0.034
			c0.491,0,0.845-0.01,1.099-0.01c0.601,0.002,1.035-0.405,1.171-0.893c0.016-0.057,0.056-0.271,0.104-0.545l0.267-1.438
			c0.017-0.084,0.035-0.162,0.049-0.224l0.011-0.057h-0.008l0.432-2.32c0.419-2.425,1.718-4.12,2.945-4.12
			c0.871,0,1.145,0.646,1.145,1.5c0,0.421-0.072,0.894-0.149,1.393l-1.273,6.714h3.467l1.025-5.54
			c0.473-2.472,1.672-4.066,2.869-4.066c0.824,0,1.197,0.599,1.197,1.445c0,0.476-0.071,1.001-0.171,1.476l-1.221,6.686h3.491
			l1.321-7.111c0.101-0.622,0.202-1.596,0.202-2.099C84.604,62.799,83.505,61.577,81.634,61.577z"/>
		<path fill="#1A62AF" d="M178.934,42.687h-5.633l5.23-9.189L178.934,42.687L178.934,42.687z M179.128,48.212l0.141,4.217h8.268
			l-2.86-25.555h-5.873c-1.905-0.011-3.378,0.791-4.369,2.554l-14.721,23.001h6.653c0.973,0.089,1.669-0.278,2.058-1.149l1.71-3.067
			H179.128L179.128,48.212L179.128,48.212z M142.009,26.874h5.226l-2.365,8.941h8.634l1.645-6.211c0.477-1.78,1.45-2.776,3.102-2.73
			h5.542l-6.274,23.785c-0.389,1.303-1.215,1.834-2.365,1.77h-6.033l2.724-10.333h-8.633l-2.219,8.416
			c-0.441,1.361-1.249,2.017-2.452,1.917h-5.95l6.091-23.065C139.13,27.559,140.293,26.805,142.009,26.874L142.009,26.874
			L142.009,26.874z M129.736,52.429l-1.622-6.989c-0.441-1.929-0.972-3.35-1.579-4.264c-0.608-0.908-1.433-1.551-2.472-1.929
			c0.926-0.33,1.704-0.784,2.336-1.351c0.631-0.561,1.309-1.416,2.027-2.56c0.721-1.144,1.468-1.969,2.26-2.482
			c0.784-0.513,1.852-0.766,3.203-0.766h0.394l1.428-5.402c-2.903,0-5.079,0.146-6.511,0.448c-1.444,0.305-2.561,0.802-3.344,1.497
			c-0.79,0.69-1.687,1.828-2.702,3.421c-1.379,2.152-2.316,3.45-2.824,3.897c-0.502,0.461-1.104,0.709-1.792,0.737l2.589-9.813
			h-5.09c-2.041-0.164-2.979,0.708-3.35,2.111l-6.187,23.443h5.663c1.526,0.081,2.463-0.602,2.806-2.242l2.082-7.866
			c0.72,0,1.227,0.188,1.533,0.584c0.302,0.383,0.62,1.361,0.938,2.918l1.328,6.606H129.736L129.736,52.429L129.736,52.429z
			 M87.028,39.702c-0.677,2.582-0.696,4.435-0.035,5.561c0.666,1.127,1.822,1.692,3.467,1.692c1.698,0,3.161-0.555,4.376-1.656
			c1.221-1.104,2.216-3.085,2.972-5.939c0.631-2.413,0.608-4.169-0.064-5.279c-0.679-1.108-1.852-1.661-3.516-1.661
			c-1.586,0-3.013,0.561-4.275,1.691C88.69,35.231,87.718,37.1,87.028,39.702L87.028,39.702L87.028,39.702z M79.137,39.666
			c1.103-4.17,3.126-7.419,6.058-9.736c2.943-2.329,6.487-3.491,10.633-3.491c4.251,0,7.229,1.144,8.928,3.427
			c1.692,2.282,2.006,5.484,0.919,9.595c-0.789,2.983-1.939,5.437-3.45,7.349c-1.509,1.91-3.354,3.396-5.537,4.458
			c-2.182,1.067-4.682,1.597-7.524,1.597c-2.878,0-5.143-0.459-6.795-1.372c-1.639-0.927-2.788-2.378-3.438-4.364
			C78.282,45.139,78.347,42.65,79.137,39.666L79.137,39.666z"/>
		<radialGradient id="SVGID_1_" cx="59.6294" cy="27.3203" r="7.1559" gradientUnits="userSpaceOnUse">
			<stop  offset="0" style="stop-color:#FFEDC7"/>
			<stop  offset="1" style="stop-color:#FCC94A"/>
		</radialGradient>
		<polygon fill-rule="evenodd" clip-rule="evenodd" fill="url(#SVGID_1_)" points="53.317,18.376 55.577,39.672 57.611,39.672 
			56.072,18.376 		"/>
		<radialGradient id="SVGID_2_" cx="65.6674" cy="27.3203" r="5.11" gradientUnits="userSpaceOnUse">
			<stop  offset="0" style="stop-color:#FFFFFF"/>
			<stop  offset="1" style="stop-color:#F8BE18"/>
		</radialGradient>
		<polygon fill-rule="evenodd" clip-rule="evenodd" fill="url(#SVGID_2_)" points="72.107,18.376 69.843,39.672 67.814,39.672 
			69.354,18.376 		"/>
		<radialGradient id="SVGID_3_" cx="63.1525" cy="27.7462" r="5.5102" gradientUnits="userSpaceOnUse">
			<stop  offset="0" style="stop-color:#FFFFFF"/>
			<stop  offset="1" style="stop-color:#F8BE18"/>
		</radialGradient>
		<polygon fill-rule="evenodd" clip-rule="evenodd" fill="url(#SVGID_3_)" points="57.365,18.376 58.497,39.672 66.429,39.672 
			68.285,18.376 		"/>
		<path fill-rule="evenodd" clip-rule="evenodd" fill="#EB262A" d="M0,23.071c3.302,0.413,7.708,1.575,12.549,3.55
			c5.473-5.331,16-13.641,32.825-19.521C30.366,8.121,13.753,12.219,0,23.071z"/>
		<path fill-rule="evenodd" clip-rule="evenodd" fill="#EB262A" d="M42.373,49.945c0.877-2.236,1.769-4.376,2.702-6.428
			c-5.445-3.923-11.56-6.677-17.381-8.476C33.096,38.965,38.257,43.899,42.373,49.945z"/>
		<path fill="#1A62AF" d="M62.867,0v0.283c-1.27,0-2.3,1.032-2.3,2.306c0,0.377,0.105,0.744,0.282,1.074
			c0.194,0.365,0.484,0.684,0.861,0.907l0.282,0.165l-0.312,0.089c-0.359,0.106-0.584,0.272-0.666,0.489
			c-0.136,0.348,0.112,0.755,0.112,0.755l0.106,0.177l-0.189,0.041c-1.616,0.366-5.797,1.551-5.725,2.654
			c0.052,0.796,1.71,1.604,2.346,1.852l0.096,0.036l-0.096,1.756l-0.117,0.018c-3.327,0.466-8.009,1.469-7.996,2.242
			c0.011,1.315,1.862,1.315,1.944,1.315h0.213l-0.082,0.195c-0.09,0.223-0.289,0.867-0.1,1.215c0.076,0.136,0.206,0.218,0.388,0.247
			l0.107,0.018l2.535,22.682l-0.042,0.047c-0.006,0.006-0.601,0.637-0.578,1.179c0.007,0.166,0.071,0.295,0.202,0.413
			c0.671,0.596,2.093,0.455,2.111,0.455l0.159-0.018l-0.006,0.158c0,0.09,0.016,0.271,0.071,0.438
			c0.035,0.093,0.075,0.176,0.135,0.236c0.076,0.069,0.184,0.104,0.313,0.087c0.661-0.07,1.304-0.519,1.31-0.525l0.135-0.093
			l0.986,1.98c0.53,1.038,1.186,1.705,1.19,1.705l0.097,0.101c0,0-0.639,0.667-0.827,0.867c0.301,0.147,2.306,1.113,2.306,1.113
			l-0.159,0.135c-0.012,0.007-0.649,0.567-0.826,1.346c-0.036,0.149-0.053,0.308-0.053,0.467c0,0.772,0.359,1.656,0.784,2.216
			c0.295,0.396,0.62,0.633,0.938,0.649c0.023-0.007,0.047-0.007,0.066-0.013v0.272c-0.048,0.013-0.095,0.017-0.149,0.017
			c-0.342-0.017-0.731-0.283-1.079-0.754c-0.441-0.59-0.842-1.522-0.842-2.384c0-0.182,0.016-0.359,0.059-0.529
			c0.146-0.643,0.542-1.121,0.766-1.352c-0.307-0.147-2.283-1.097-2.283-1.097s0.761-0.801,0.909-0.954
			c-0.194-0.214-0.697-0.796-1.145-1.682c0,0-0.725-1.451-0.848-1.692c-0.237,0.147-0.755,0.425-1.304,0.483
			c-0.213,0.029-0.389-0.023-0.532-0.152c-0.029-0.03-0.046-0.06-0.069-0.09c-0.85,2.371-1.563,4.872-2.147,7.513
			c-2.589-3.171-5.591-5.883-8.822-8.196c-6.127-4.388-13.068-7.324-19.508-9.1c-6.664-1.84-12.792-2.441-16.915-2.142
			c0.667-0.842,2.095-2.534,4.334-4.7c5.734-5.531,16.892-14.194,34.86-19.974c3.826-1.232,7.973-2.318,12.425-3.232
			c-0.188-0.341-0.293-0.719-0.293-1.127C60.284,1.156,61.444,0,62.867,0L62.867,0L62.867,0z M99.602,10.238
			c-1.599-0.802-17.965-9.018-18.136-9.1c-5.731,0.271-11.057,0.872-16.035,1.687c0.006-0.082,0.031-0.159,0.031-0.236
			C65.462,1.156,64.3,0,62.873,0h-0.005v0.283h0.005c1.274,0,2.305,1.032,2.305,2.306c0,0.095-0.029,0.19-0.04,0.284
			c-0.094,0.725-0.514,1.375-1.179,1.733L63.68,4.754l0.301,0.112c0.295,0.105,0.484,0.264,0.554,0.464
			c0.119,0.348-0.124,0.738-0.124,0.738l-0.123,0.195l0.225,0.023c0.047,0.005,4.546,0.478,5.739,2.017
			c0.229,0.301,0.318,0.606,0.258,0.949c-0.205,1.363-2.564,1.528-2.587,1.533l-0.143,0.007l0.095,1.792l0.112,0.018
			c3.415,0.466,8.21,1.469,8.204,2.242c-0.013,1.333-2.154,1.716-2.171,1.716l-0.206,0.041l0.106,0.171
			c0.076,0.134,0.254,0.536,0.13,0.789c-0.059,0.13-0.2,0.219-0.425,0.253l-0.105,0.018l-0.385,3.438l-2.151,19.244l0.041,0.047
			c0.005,0.006,0.602,0.637,0.577,1.174c-0.007,0.171-0.07,0.3-0.206,0.418c-0.667,0.596-2.094,0.455-2.111,0.455l-0.159-0.018
			l0.005,0.158c0.005,0.131-0.018,0.508-0.2,0.674c-0.084,0.075-0.183,0.104-0.313,0.087c-0.665-0.07-1.303-0.519-1.309-0.525
			l-0.136-0.093l-0.991,1.98c-0.526,1.038-1.179,1.705-1.186,1.705l-0.101,0.101c0,0,0.637,0.667,0.832,0.867
			c-0.3,0.147-2.311,1.113-2.311,1.113l0.17,0.135c0.005,0.007,0.643,0.562,0.82,1.346c0.036,0.149,0.046,0.308,0.046,0.467
			c0,0.772-0.359,1.656-0.783,2.223c-0.272,0.359-0.561,0.584-0.802,0.63v0.272c0.382-0.064,0.719-0.318,1.032-0.737
			c0.436-0.584,0.836-1.522,0.836-2.384c0-0.182-0.017-0.359-0.053-0.529c-0.147-0.643-0.548-1.121-0.766-1.352
			c0.306-0.147,2.276-1.097,2.276-1.097s-0.755-0.801-0.902-0.954c0.195-0.214,0.696-0.796,1.144-1.682c0,0,0.672-1.345,0.843-1.692
			c0.236,0.147,0.761,0.425,1.31,0.483c0.218,0.029,0.39-0.023,0.53-0.152c0.237-0.218,0.272-0.556,0.284-0.743
			c0.308,0.022,1.504,0.087,2.188-0.526c0.183-0.164,0.283-0.371,0.294-0.619c0-0.011,0-0.022,0-0.041
			c0-0.584-0.488-1.155-0.611-1.284c0.01-0.101,1.484-13.259,2.17-19.357C80.24,16.365,88.862,12.838,99.602,10.238L99.602,10.238z"
			/>
		<path fill-rule="evenodd" clip-rule="evenodd" fill="#1A62AF" d="M67.514,12.597h-9.478l0.136-1.486c0,0,2.087,0.512,4.647,0.453
			c2.565-0.052,4.56-0.453,4.56-0.453L67.514,12.597z"/>
		<path fill-rule="evenodd" clip-rule="evenodd" fill="#1A62AF" d="M56.662,9.608c3.344,2.441,12.532,1.149,12.874-0.332
			c0.342-1.479-3.321-2.388-4.841-2.546C67.32,7.843,69.111,9.997,56.662,9.608z"/>
		<path fill-rule="evenodd" clip-rule="evenodd" fill="#1A62AF" d="M68.227,13.045c0,0,7.319,0.625,7.3,2.224
			c-0.023,2.317-24.208,1.763-25.345,0.454c5.236,0.743,19.082,0.396,20.38-0.512C72.443,13.9,68.227,13.045,68.227,13.045z"/>
		<path fill-rule="evenodd" clip-rule="evenodd" fill="#1A62AF" d="M54.817,42.131c3.089,0.784,12.79,0.342,14.606,0.172
			c1.822-0.172,1.952-0.99,0.95-1.693C70.031,41.264,63.579,42.778,54.817,42.131z"/>
		<path fill-rule="evenodd" clip-rule="evenodd" fill="#1A62AF" d="M60.454,43.229c0,0,2.825,0.159,4.269,0.076
			c1.434-0.076,1.735-0.135,1.735-0.135s-0.271,0.789-0.706,1.496c-0.432,0.709-1.221,1.789-1.221,1.789h-3.504
			c0,0,1.692-0.775,1.705-1.623C62.766,43.47,60.454,43.229,60.454,43.229z"/>
		<path fill-rule="evenodd" clip-rule="evenodd" fill="#1A62AF" d="M64.134,50.883c0,0.92-0.39,1.676-0.868,1.676
			c-0.488,0-0.878-0.756-0.878-1.676c0-0.919,0.389-1.669,0.878-1.669C63.745,49.214,64.134,49.964,64.134,50.883z"/>
		<polygon fill-rule="evenodd" clip-rule="evenodd" fill="#1A62AF" points="61.026,47.669 64.664,47.622 63.302,48.4 62.389,48.418 
					"/>
		<ellipse fill-rule="evenodd" clip-rule="evenodd" fill="#1A62AF" cx="63.114" cy="2.695" rx="1.485" ry="1.445"/>
		<path fill-rule="evenodd" clip-rule="evenodd" fill="#ED1C24" d="M121.311,61.875c-1.743,0-3.141,0.9-4.143,2.293h-0.1
			c0.226-0.948,0.899-2.145,1.677-2.868c1.571-1.494,3.415-1.618,5.287-1.819c0.723-0.078,1.477-0.149,2.146-0.35l0.526-2.992
			c-0.651,0.224-1.546,0.325-2.422,0.397c-3.017,0.248-5.388,0.675-7.611,2.992c-2.069,2.145-3.118,5.34-3.118,8.861
			c0,3.816,1.897,5.963,4.968,5.963c4.29,0,7.058-3.67,7.082-7.688C125.601,63.972,124.055,61.875,121.311,61.875z M118.94,71.708
			c-1.298,0-1.844-1.275-1.844-2.644c0-1.327,0.397-2.597,1.073-3.474c0.498-0.67,1.197-1.144,1.943-1.144
			c1.299,0,1.773,1.321,1.773,2.47C121.886,68.763,121.015,71.708,118.94,71.708z"/>
		<path fill-rule="evenodd" clip-rule="evenodd" fill="#ED1C24" d="M135.413,61.875l-2.171,5.393
			c-0.498,1.347-0.799,2.117-1.072,2.869h-0.053c-0.095-0.776-0.25-1.648-0.42-2.922l-0.752-5.34h-3.789l2.419,11.078
			c0.047,0.254,0.047,0.401-0.053,0.573c-0.467,0.825-1.167,1.571-1.99,2.147c-0.7,0.473-1.499,0.775-2.074,0.946l0.799,3.096
			c0.799-0.125,2.495-0.747,3.917-2.093c1.671-1.577,3.047-3.569,4.719-6.787c1.298-2.548,3.194-6.638,4.315-8.961H135.413z"/>
		<path fill-rule="evenodd" clip-rule="evenodd" fill="#ED1C24" d="M158.747,61.603c-1.5,0-2.971,0.373-3.917,0.87l0.348,2.395
			c0.801-0.319,1.797-0.623,2.821-0.623c0.849,0,1.323,0.327,1.323,0.801c0,0.646-1.049,1.098-2.276,1.596
			c-2.115,0.876-4.314,1.795-4.314,4.345c0,2.192,1.669,3.318,4.391,3.341c1.477,0,3.171-0.426,4.292-1.024l-0.374-2.518
			c-0.824,0.397-2.096,0.925-3.366,0.925c-0.9,0-1.251-0.35-1.251-0.849c0-0.699,0.925-1.173,2.248-1.748
			c2.269-0.947,4.143-2.021,4.143-4.144C162.814,62.899,161.414,61.626,158.747,61.603z"/>
		<path fill-rule="evenodd" clip-rule="evenodd" fill="#ED1C24" d="M176.588,62.2c-0.997-0.325-2.573-0.598-4.019-0.598
			c-6.016,0-8.76,4.391-8.76,8.505c0,2.55,1.499,4.244,3.698,4.244c1.416,0,2.994-0.676,4.167-2.692h0.047
			c-0.077,0.872-0.125,1.695-0.148,2.418h0.008l-0.002,0.009h2.333c0.462-0.099,0.791-0.453,0.906-0.866
			c0.047-0.17,0.044-0.393,0.244-2.61c0.085-0.729,0.19-1.433,0.304-2.019L176.588,62.2z M169.025,71.459
			c-0.998,0-1.471-0.823-1.471-2.021c0-2.271,1.697-5.116,4.043-5.116c0.349,0,0.676,0.049,0.948,0.102l-0.522,2.815
			C171.473,70.231,170.126,71.459,169.025,71.459z"/>
		<path fill-rule="evenodd" clip-rule="evenodd" fill="#ED1C24" d="M107.685,61.603c-1.471,0-2.917,0.723-3.918,2.045h-0.048
			l0.225-1.874h-0.001l0,0c-0.2-0.003-0.55-0.003-0.752-0.003h-0.179h-0.035c-0.49,0.002-0.844,0.012-1.099,0.011
			c-0.548-0.001-0.955,0.339-1.125,0.769l-0.004,0.002c-0.001,0.006-0.002,0.012-0.002,0.019c-0.014,0.034-0.029,0.069-0.039,0.104
			c-0.044,0.157-0.244,1.554-0.354,2.175c-0.104,0.564-0.213,1.141-0.327,1.743l-2.367,12.402l-0.003,0.006h0.002l-0.003,0.014
			h2.731l0.114,0.001c0.462-0.099,0.791-0.453,0.907-0.866c0.009-0.034,0.031-0.146,0.06-0.306l0.753-3.99h0.079
			c0.426,0.249,1.272,0.498,2.245,0.498c4.268,0,7.084-3.896,7.084-8.108C111.626,63.725,110.334,61.603,107.685,61.603z
			 M104.442,71.631c-0.723,0-1.245-0.226-1.648-0.575l0.452-2.644c0.396-2.419,1.696-3.895,3.045-3.895
			c1.145,0,1.571,1.025,1.571,1.998C107.862,68.91,106.362,71.631,104.442,71.631z"/>
		<path fill-rule="evenodd" clip-rule="evenodd" fill="#ED1C24" d="M147.847,61.616c-1.471,0-2.916,0.724-3.917,2.045h-0.048
			l0.225-1.874h-0.001l0,0c-0.201-0.003-0.552-0.002-0.753-0.002h-0.179h-0.035c-0.489,0.001-0.844,0.011-1.099,0.01
			c-0.548-0.001-0.955,0.34-1.125,0.77l-0.004,0.001c-0.001,0.005-0.002,0.01-0.002,0.015c-0.014,0.036-0.029,0.071-0.039,0.108
			c-0.045,0.159-0.25,1.589-0.358,2.198c-0.104,0.557-0.21,1.125-0.323,1.72L137.82,79.01l-0.003,0.005h0.002l-0.002,0.015h2.731
			l0.113,0.001c0.463-0.1,0.792-0.454,0.907-0.866c0.009-0.032,0.027-0.128,0.054-0.266l0,0l0.76-4.031h0.077
			c0.426,0.249,1.274,0.498,2.245,0.498c4.268,0,7.084-3.895,7.084-8.108C151.787,63.738,150.495,61.616,147.847,61.616z
			 M144.604,71.645c-0.723,0-1.245-0.226-1.649-0.576l0.452-2.644c0.396-2.417,1.695-3.894,3.045-3.894
			c1.145,0,1.572,1.025,1.572,1.998C148.024,68.925,146.524,71.645,144.604,71.645z"/>
		<path fill="#1A62AF" d="M178.934,42.687h-5.633l5.23-9.189L178.934,42.687L178.934,42.687z M179.128,48.212l0.141,4.217h8.268
			l-2.86-25.555h-5.873c-1.905-0.011-3.378,0.791-4.369,2.554l-14.721,23.001h6.653c0.973,0.089,1.669-0.278,2.058-1.149l1.71-3.067
			H179.128L179.128,48.212L179.128,48.212z M142.009,26.874h5.226l-2.365,8.941h8.634l1.645-6.211c0.477-1.78,1.45-2.776,3.102-2.73
			h5.542l-6.274,23.785c-0.389,1.303-1.215,1.834-2.365,1.77h-6.033l2.724-10.333h-8.633l-2.219,8.416
			c-0.441,1.361-1.249,2.017-2.452,1.917h-5.95l6.091-23.065C139.13,27.559,140.293,26.805,142.009,26.874L142.009,26.874
			L142.009,26.874z M129.736,52.429l-1.622-6.989c-0.441-1.929-0.972-3.35-1.579-4.264c-0.608-0.908-1.433-1.551-2.472-1.929
			c0.926-0.33,1.704-0.784,2.336-1.351c0.631-0.561,1.309-1.416,2.027-2.56c0.721-1.144,1.468-1.969,2.26-2.482
			c0.784-0.513,1.852-0.766,3.203-0.766h0.394l1.428-5.402c-2.903,0-5.079,0.146-6.511,0.448c-1.444,0.305-2.561,0.802-3.344,1.497
			c-0.79,0.69-1.687,1.828-2.702,3.421c-1.379,2.152-2.316,3.45-2.824,3.897c-0.502,0.461-1.104,0.709-1.792,0.737l2.589-9.813
			h-5.09c-2.041-0.164-2.979,0.708-3.35,2.111l-6.187,23.443h5.663c1.526,0.081,2.463-0.602,2.806-2.242l2.082-7.866
			c0.72,0,1.227,0.188,1.533,0.584c0.302,0.383,0.62,1.361,0.938,2.918l1.328,6.606H129.736L129.736,52.429L129.736,52.429z
			 M87.028,39.702c-0.677,2.582-0.696,4.435-0.035,5.561c0.666,1.127,1.822,1.692,3.467,1.692c1.698,0,3.161-0.555,4.376-1.656
			c1.221-1.104,2.216-3.085,2.972-5.939c0.631-2.413,0.608-4.169-0.064-5.279c-0.679-1.108-1.852-1.661-3.516-1.661
			c-1.586,0-3.013,0.561-4.275,1.691C88.69,35.231,87.718,37.1,87.028,39.702L87.028,39.702L87.028,39.702z M79.137,39.666
			c1.103-4.17,3.126-7.419,6.058-9.736c2.943-2.329,6.487-3.491,10.633-3.491c4.251,0,7.229,1.144,8.928,3.427
			c1.692,2.282,2.006,5.484,0.919,9.595c-0.789,2.983-1.939,5.437-3.45,7.349c-1.509,1.91-3.354,3.396-5.537,4.458
			c-2.182,1.067-4.682,1.597-7.524,1.597c-2.878,0-5.143-0.459-6.795-1.372c-1.639-0.927-2.788-2.378-3.438-4.364
			C78.282,45.139,78.347,42.65,79.137,39.666L79.137,39.666z"/>
		<radialGradient id="SVGID_4_" cx="59.6294" cy="27.3203" r="7.1559" gradientUnits="userSpaceOnUse">
			<stop  offset="0" style="stop-color:#FFEDC7"/>
			<stop  offset="1" style="stop-color:#FCC94A"/>
		</radialGradient>
		<polygon fill-rule="evenodd" clip-rule="evenodd" fill="url(#SVGID_4_)" points="53.317,18.376 55.577,39.672 57.611,39.672 
			56.072,18.376 		"/>
		<radialGradient id="SVGID_5_" cx="65.6674" cy="27.3203" r="5.11" gradientUnits="userSpaceOnUse">
			<stop  offset="0" style="stop-color:#FFFFFF"/>
			<stop  offset="1" style="stop-color:#F8BE18"/>
		</radialGradient>
		<polygon fill-rule="evenodd" clip-rule="evenodd" fill="url(#SVGID_5_)" points="72.107,18.376 69.843,39.672 67.814,39.672 
			69.354,18.376 		"/>
		<radialGradient id="SVGID_6_" cx="63.1525" cy="27.7462" r="5.5102" gradientUnits="userSpaceOnUse">
			<stop  offset="0" style="stop-color:#FFFFFF"/>
			<stop  offset="1" style="stop-color:#F8BE18"/>
		</radialGradient>
		<polygon fill-rule="evenodd" clip-rule="evenodd" fill="url(#SVGID_6_)" points="57.365,18.376 58.497,39.672 66.429,39.672 
			68.285,18.376 		"/>
		<path fill-rule="evenodd" clip-rule="evenodd" fill="#EB262A" d="M0,23.071c3.302,0.413,7.708,1.575,12.549,3.55
			c5.473-5.331,16-13.641,32.825-19.521C30.366,8.121,13.753,12.219,0,23.071z"/>
		<path fill-rule="evenodd" clip-rule="evenodd" fill="#EB262A" d="M42.373,49.945c0.877-2.236,1.769-4.376,2.702-6.428
			c-5.445-3.923-11.56-6.677-17.381-8.476C33.096,38.965,38.257,43.899,42.373,49.945z"/>
		<path fill="#1A62AF" d="M62.867,0v0.283c-1.27,0-2.3,1.032-2.3,2.306c0,0.377,0.105,0.744,0.282,1.074
			c0.194,0.365,0.484,0.684,0.861,0.907l0.282,0.165l-0.312,0.089c-0.359,0.106-0.584,0.272-0.666,0.489
			c-0.136,0.348,0.112,0.755,0.112,0.755l0.106,0.177l-0.189,0.041c-1.616,0.366-5.797,1.551-5.725,2.654
			c0.052,0.796,1.71,1.604,2.346,1.852l0.096,0.036l-0.096,1.756l-0.117,0.018c-3.327,0.466-8.009,1.469-7.996,2.242
			c0.011,1.315,1.862,1.315,1.944,1.315h0.213l-0.082,0.195c-0.09,0.223-0.289,0.867-0.1,1.215c0.076,0.136,0.206,0.218,0.388,0.247
			l0.107,0.018l2.535,22.682l-0.042,0.047c-0.006,0.006-0.601,0.637-0.578,1.179c0.007,0.166,0.071,0.295,0.202,0.413
			c0.671,0.596,2.093,0.455,2.111,0.455l0.159-0.018l-0.006,0.158c0,0.09,0.016,0.271,0.071,0.438
			c0.035,0.093,0.075,0.176,0.135,0.236c0.076,0.069,0.184,0.104,0.313,0.087c0.661-0.07,1.304-0.519,1.31-0.525l0.135-0.093
			l0.986,1.98c0.53,1.038,1.186,1.705,1.19,1.705l0.097,0.101c0,0-0.639,0.667-0.827,0.867c0.301,0.147,2.306,1.113,2.306,1.113
			l-0.159,0.135c-0.012,0.007-0.649,0.567-0.826,1.346c-0.036,0.149-0.053,0.308-0.053,0.467c0,0.772,0.359,1.656,0.784,2.216
			c0.295,0.396,0.62,0.633,0.938,0.649c0.023-0.007,0.047-0.007,0.066-0.013v0.272c-0.048,0.013-0.095,0.017-0.149,0.017
			c-0.342-0.017-0.731-0.283-1.079-0.754c-0.441-0.59-0.842-1.522-0.842-2.384c0-0.182,0.016-0.359,0.059-0.529
			c0.146-0.643,0.542-1.121,0.766-1.352c-0.307-0.147-2.283-1.097-2.283-1.097s0.761-0.801,0.909-0.954
			c-0.194-0.214-0.697-0.796-1.145-1.682c0,0-0.725-1.451-0.848-1.692c-0.237,0.147-0.755,0.425-1.304,0.483
			c-0.213,0.029-0.389-0.023-0.532-0.152c-0.029-0.03-0.046-0.06-0.069-0.09c-0.85,2.371-1.563,4.872-2.147,7.513
			c-2.589-3.171-5.591-5.883-8.822-8.196c-6.127-4.388-13.068-7.324-19.508-9.1c-6.664-1.84-12.792-2.441-16.915-2.142
			c0.667-0.842,2.095-2.534,4.334-4.7c5.734-5.531,16.892-14.194,34.86-19.974c3.826-1.232,7.973-2.318,12.425-3.232
			c-0.188-0.341-0.293-0.719-0.293-1.127C60.284,1.156,61.444,0,62.867,0L62.867,0L62.867,0z M99.602,10.238
			c-1.599-0.802-17.965-9.018-18.136-9.1c-5.731,0.271-11.057,0.872-16.035,1.687c0.006-0.082,0.031-0.159,0.031-0.236
			C65.462,1.156,64.3,0,62.873,0h-0.005v0.283h0.005c1.274,0,2.305,1.032,2.305,2.306c0,0.095-0.029,0.19-0.04,0.284
			c-0.094,0.725-0.514,1.375-1.179,1.733L63.68,4.754l0.301,0.112c0.295,0.105,0.484,0.264,0.554,0.464
			c0.119,0.348-0.124,0.738-0.124,0.738l-0.123,0.195l0.225,0.023c0.047,0.005,4.546,0.478,5.739,2.017
			c0.229,0.301,0.318,0.606,0.258,0.949c-0.205,1.363-2.564,1.528-2.587,1.533l-0.143,0.007l0.095,1.792l0.112,0.018
			c3.415,0.466,8.21,1.469,8.204,2.242c-0.013,1.333-2.154,1.716-2.171,1.716l-0.206,0.041l0.106,0.171
			c0.076,0.134,0.254,0.536,0.13,0.789c-0.059,0.13-0.2,0.219-0.425,0.253l-0.105,0.018l-0.385,3.438l-2.151,19.244l0.041,0.047
			c0.005,0.006,0.602,0.637,0.577,1.174c-0.007,0.171-0.07,0.3-0.206,0.418c-0.667,0.596-2.094,0.455-2.111,0.455l-0.159-0.018
			l0.005,0.158c0.005,0.131-0.018,0.508-0.2,0.674c-0.084,0.075-0.183,0.104-0.313,0.087c-0.665-0.07-1.303-0.519-1.309-0.525
			l-0.136-0.093l-0.991,1.98c-0.526,1.038-1.179,1.705-1.186,1.705l-0.101,0.101c0,0,0.637,0.667,0.832,0.867
			c-0.3,0.147-2.311,1.113-2.311,1.113l0.17,0.135c0.005,0.007,0.643,0.562,0.82,1.346c0.036,0.149,0.046,0.308,0.046,0.467
			c0,0.772-0.359,1.656-0.783,2.223c-0.272,0.359-0.561,0.584-0.802,0.63v0.272c0.382-0.064,0.719-0.318,1.032-0.737
			c0.436-0.584,0.836-1.522,0.836-2.384c0-0.182-0.017-0.359-0.053-0.529c-0.147-0.643-0.548-1.121-0.766-1.352
			c0.306-0.147,2.276-1.097,2.276-1.097s-0.755-0.801-0.902-0.954c0.195-0.214,0.696-0.796,1.144-1.682c0,0,0.672-1.345,0.843-1.692
			c0.236,0.147,0.761,0.425,1.31,0.483c0.218,0.029,0.39-0.023,0.53-0.152c0.237-0.218,0.272-0.556,0.284-0.743
			c0.308,0.022,1.504,0.087,2.188-0.526c0.183-0.164,0.283-0.371,0.294-0.619c0-0.011,0-0.022,0-0.041
			c0-0.584-0.488-1.155-0.611-1.284c0.01-0.101,1.484-13.259,2.17-19.357C80.24,16.365,88.862,12.838,99.602,10.238L99.602,10.238z"
			/>
		<path fill-rule="evenodd" clip-rule="evenodd" fill="#1A62AF" d="M67.514,12.597h-9.478l0.136-1.486c0,0,2.087,0.512,4.647,0.453
			c2.565-0.052,4.56-0.453,4.56-0.453L67.514,12.597z"/>
		<path fill-rule="evenodd" clip-rule="evenodd" fill="#1A62AF" d="M56.662,9.608c3.344,2.441,12.532,1.149,12.874-0.332
			c0.342-1.479-3.321-2.388-4.841-2.546C67.32,7.843,69.111,9.997,56.662,9.608z"/>
		<path fill-rule="evenodd" clip-rule="evenodd" fill="#1A62AF" d="M68.227,13.045c0,0,7.319,0.625,7.3,2.224
			c-0.023,2.317-24.208,1.763-25.345,0.454c5.236,0.743,19.082,0.396,20.38-0.512C72.443,13.9,68.227,13.045,68.227,13.045z"/>
		<path fill-rule="evenodd" clip-rule="evenodd" fill="#1A62AF" d="M54.817,42.131c3.089,0.784,12.79,0.342,14.606,0.172
			c1.822-0.172,1.952-0.99,0.95-1.693C70.031,41.264,63.579,42.778,54.817,42.131z"/>
		<path fill-rule="evenodd" clip-rule="evenodd" fill="#1A62AF" d="M60.454,43.229c0,0,2.825,0.159,4.269,0.076
			c1.434-0.076,1.735-0.135,1.735-0.135s-0.271,0.789-0.706,1.496c-0.432,0.709-1.221,1.789-1.221,1.789h-3.504
			c0,0,1.692-0.775,1.705-1.623C62.766,43.47,60.454,43.229,60.454,43.229z"/>
		<path fill-rule="evenodd" clip-rule="evenodd" fill="#1A62AF" d="M64.134,50.883c0,0.92-0.39,1.676-0.868,1.676
			c-0.488,0-0.878-0.756-0.878-1.676c0-0.919,0.389-1.669,0.878-1.669C63.745,49.214,64.134,49.964,64.134,50.883z"/>
		<polygon fill-rule="evenodd" clip-rule="evenodd" fill="#1A62AF" points="61.026,47.669 64.664,47.622 63.302,48.4 62.389,48.418 
					"/>
		<ellipse fill-rule="evenodd" clip-rule="evenodd" fill="#1A62AF" cx="63.114" cy="2.695" rx="1.485" ry="1.445"/>
	</g>
	<g>
		<path fill="#1D63AE" d="M195.973,15.028v-0.039c0.827-0.302,1.602-1.077,1.602-2.219c0-0.749-0.276-1.366-0.761-1.774
			c-0.591-0.499-1.458-0.709-2.732-0.709c-0.933,0-1.839,0.078-2.443,0.184v8.735h1.603v-3.639h0.814
			c0.92,0.027,1.34,0.394,1.589,1.55c0.249,1.103,0.46,1.826,0.591,2.088h1.668c-0.184-0.341-0.42-1.366-0.696-2.469
			C196.984,15.881,196.604,15.264,195.973,15.028z M194.2,14.384h-0.959v-2.798c0.158-0.039,0.486-0.078,0.998-0.078
			c1.051,0,1.734,0.446,1.734,1.418C195.973,13.807,195.29,14.384,194.2,14.384z"/>
		<path fill="#1D63AE" d="M194.771,5.751c-4.96,0-8.995,4.035-8.995,8.995s4.035,8.995,8.995,8.995c4.96,0,8.994-4.035,8.994-8.995
			S199.731,5.751,194.771,5.751z M194.771,22.225c-4.124,0-7.479-3.355-7.479-7.479s3.355-7.479,7.479-7.479
			s7.479,3.355,7.479,7.479S198.895,22.225,194.771,22.225z"/>
	</g>
</g>
</svg>
